<?xml version="1.0" standalone="no"?>
<!DOCTYPE svg PUBLIC "-//W3C//DTD SVG 20010904//EN"
 "http://www.w3.org/TR/2001/REC-SVG-20010904/DTD/svg10.dtd">
<svg version="1.0" xmlns="http://www.w3.org/2000/svg"
 width="512.000000pt" height="512.000000pt" viewBox="0 0 512.000000 512.000000"
 preserveAspectRatio="xMidYMid meet">

<g transform="translate(0.000000,512.000000) scale(0.100000,-0.100000)"
fill="#000000" stroke="none">
<path d="M1895 5114 c-261 -39 -481 -148 -651 -325 -413 -431 -402 -1114 25
-1522 139 -132 303 -225 488 -274 87 -23 117 -26 263 -26 146 0 176 3 261 26
243 64 454 204 600 396 70 92 154 267 186 386 23 89 26 118 26 265 0 146 -3
176 -26 265 -31 119 -115 292 -186 386 -146 193 -361 334 -600 396 -94 24
-306 39 -386 27z m285 -170 c387 -73 678 -366 745 -751 62 -357 -97 -719 -404
-921 -305 -200 -697 -200 -1002 0 -487 320 -560 1001 -152 1412 213 216 524
315 813 260z"/>
<path d="M1145 2789 c-491 -71 -886 -470 -954 -963 -16 -111 -15 -807 1 -860
16 -55 99 -138 154 -154 31 -9 270 -12 968 -12 l928 0 29 29 c37 37 37 65 0
102 l-29 29 -927 0 -926 0 -25 25 -25 25 4 408 c3 379 5 413 25 491 91 345
362 615 708 703 l89 23 855 0 855 0 90 -23 c107 -27 266 -103 350 -167 33 -25
70 -48 82 -51 31 -8 76 17 87 49 16 44 -3 77 -79 135 -138 104 -341 187 -519
211 -94 13 -1651 13 -1741 0z"/>
<path d="M3408 2304 c-93 -28 -111 -54 -733 -1012 -323 -496 -593 -923 -602
-948 -32 -95 0 -199 83 -273 86 -75 6 -71 1344 -71 1338 0 1258 -4 1344 71 83
74 115 178 83 273 -23 68 -1178 1840 -1236 1898 -74 72 -177 95 -283 62z m155
-162 c38 -23 1217 -1834 1217 -1869 0 -13 -7 -37 -15 -53 -33 -64 43 -60
-1265 -60 -1308 0 -1232 -4 -1265 60 -8 16 -15 40 -15 53 0 35 1179 1846 1217
1869 15 10 44 18 63 18 19 0 48 -8 63 -18z"/>
<path d="M3445 1575 l-25 -24 0 -411 0 -411 25 -24 c32 -33 78 -33 110 0 l25
24 0 411 0 411 -25 24 c-15 16 -36 25 -55 25 -19 0 -40 -9 -55 -25z"/>
<path d="M3445 495 c-20 -19 -25 -34 -25 -75 0 -62 30 -100 80 -100 50 0 80
38 80 100 0 62 -30 100 -80 100 -19 0 -40 -9 -55 -25z"/>
</g>
</svg>
