<?xml version="1.0" standalone="no"?>
<!DOCTYPE svg PUBLIC "-//W3C//DTD SVG 20010904//EN"
 "http://www.w3.org/TR/2001/REC-SVG-20010904/DTD/svg10.dtd">
<svg version="1.0" xmlns="http://www.w3.org/2000/svg"
 width="512.000000pt" height="512.000000pt" viewBox="0 0 512.000000 512.000000"
 preserveAspectRatio="xMidYMid meet">

<g transform="translate(0.000000,512.000000) scale(0.100000,-0.100000)"
fill="#000000" stroke="none">
<path d="M2487 3950 c-137 -23 -301 -96 -415 -183 -218 -168 -390 -468 -443
-773 -9 -54 -14 -64 -28 -58 -9 4 -41 9 -71 11 -46 4 -60 1 -84 -18 -39 -31
-56 -77 -56 -153 0 -145 87 -311 218 -416 36 -29 50 -50 77 -120 162 -420 511
-802 898 -985 176 -83 313 -106 377 -62 63 42 72 70 81 256 14 315 79 521 252
795 61 97 63 99 122 120 181 65 347 258 349 405 1 68 -20 106 -69 127 -39 16
-96 18 -141 5 l-31 -9 -6 117 c-11 198 -60 366 -153 526 -62 107 -210 254
-314 312 -170 95 -380 133 -563 103z m338 -180 c192 -60 358 -212 447 -409 34
-73 78 -236 78 -286 0 -46 -41 -159 -96 -266 -211 -408 -631 -652 -1049 -609
-114 12 -190 30 -297 72 l-78 29 -19 62 c-38 126 -46 181 -45 342 0 172 15
272 60 416 111 353 350 596 650 663 95 22 256 15 349 -14z"/>
<path d="M2295 3400 c-15 -17 -17 -30 -11 -90 10 -103 -11 -168 -75 -231 -53
-52 -62 -84 -31 -112 25 -23 52 -21 89 6 101 75 152 209 133 349 -13 89 -62
126 -105 78z"/>
<path d="M2741 3401 c-43 -43 -41 -215 3 -304 30 -62 115 -147 146 -147 40 0
60 19 60 55 0 27 -7 39 -33 59 -72 55 -103 155 -84 268 7 40 5 50 -12 67 -26
26 -55 27 -80 2z"/>
<path d="M2494 2961 c-42 -26 -84 -113 -91 -189 -15 -160 82 -295 188 -263 77
23 122 107 123 231 1 74 -3 92 -28 143 -45 92 -120 122 -192 78z"/>
<path d="M951 3603 c-32 -28 -671 -1074 -671 -1099 0 -13 11 -36 24 -51 l24
-28 336 -3 336 -3 0 -329 0 -329 23 -27 c17 -20 33 -27 57 -27 24 0 40 7 57
27 l23 27 0 585 0 585 -25 24 c-15 16 -36 25 -55 25 -19 0 -40 -9 -55 -25 -25
-24 -25 -27 -25 -200 l0 -175 -246 0 c-205 0 -245 2 -241 14 3 7 125 208 271
445 147 238 273 445 281 461 21 41 19 67 -10 95 -29 30 -74 33 -104 8z"/>
<path d="M4631 3603 c-32 -28 -671 -1074 -671 -1099 0 -13 11 -36 24 -51 l24
-28 336 -3 336 -3 0 -329 0 -329 23 -27 c17 -20 33 -27 57 -27 24 0 40 7 57
27 l23 27 0 585 0 585 -25 24 c-15 16 -36 25 -55 25 -19 0 -40 -9 -55 -25 -25
-24 -25 -27 -25 -200 l0 -175 -246 0 c-205 0 -245 2 -241 14 3 7 125 208 271
445 147 238 273 445 281 461 21 41 19 67 -10 95 -29 30 -74 33 -104 8z"/>
</g>
</svg>
