<?xml version="1.0" standalone="no"?>
<!DOCTYPE svg PUBLIC "-//W3C//DTD SVG 20010904//EN"
 "http://www.w3.org/TR/2001/REC-SVG-20010904/DTD/svg10.dtd">
<svg version="1.0" xmlns="http://www.w3.org/2000/svg"
 width="512.000000pt" height="512.000000pt" viewBox="0 0 512.000000 512.000000"
 preserveAspectRatio="xMidYMid meet">

<g transform="translate(0.000000,512.000000) scale(0.100000,-0.100000)"
fill="#000000" stroke="none">
<path d="M440 3763 c-45 -8 -88 -24 -99 -37 -9 -10 -271 -1273 -271 -1302 0
-3 125 -4 278 -2 323 3 321 3 367 90 51 96 102 138 168 138 108 0 246 -129
330 -308 58 -124 47 -272 -28 -360 -159 -185 -441 -122 -509 112 l-12 41 -289
0 c-270 0 -293 -1 -330 -20 -49 -24 -52 -40 -30 -148 47 -234 175 -396 400
-507 297 -146 662 -141 970 13 86 43 209 131 248 176 34 41 69 61 94 55 12 -4
43 -31 68 -62 93 -113 196 -185 330 -229 74 -25 93 -27 245 -27 141 0 178 3
255 23 190 49 359 127 549 250 148 96 161 95 310 -13 261 -190 484 -269 756
-269 167 1 284 28 436 103 276 134 420 341 440 630 17 255 -90 524 -286 720
-110 110 -199 166 -334 212 -110 38 -196 40 -353 8 -241 -48 -459 -156 -657
-324 -100 -84 -129 -84 -231 4 -131 112 -317 217 -475 268 -156 50 -352 72
-471 52 -185 -31 -314 -96 -450 -227 -58 -56 -94 -83 -109 -83 -17 0 -50 27
-109 89 -96 98 -170 145 -291 183 -106 32 -308 33 -423 0 -42 -12 -88 -22
-100 -22 -50 0 -58 41 -32 176 12 63 21 85 45 109 l30 30 418 5 c392 5 419 6
457 25 l40 20 0 205 0 205 -660 1 c-363 1 -671 -1 -685 -3z m248 -85 c22 -22
13 -37 -65 -119 -139 -145 -165 -151 -144 -31 15 83 41 128 84 147 40 18 109
19 125 3z m877 -4 c16 -12 21 -29 24 -96 2 -45 -2 -98 -8 -119 -20 -68 -29
-69 -380 -69 -193 0 -320 4 -337 11 -18 6 -36 7 -49 1 -11 -5 -47 -14 -79 -20
-78 -15 -104 -33 -111 -79 -12 -76 -39 -128 -94 -186 -61 -64 -88 -71 -103
-25 -7 19 -5 45 7 85 16 55 26 68 208 249 191 190 244 234 308 253 19 5 160 9
314 10 235 0 283 -2 300 -15z m2825 -723 c102 -37 147 -61 222 -118 109 -83
186 -198 239 -353 34 -104 35 -160 3 -221 -9 -18 -84 -102 -166 -188 -145
-150 -179 -193 -165 -208 15 -14 67 27 191 150 167 164 188 166 166 14 -13
-96 -57 -231 -96 -302 -36 -64 -127 -156 -183 -185 -104 -53 -274 -76 -344
-47 -34 15 -37 18 -27 38 19 35 -3 45 -43 20 -42 -26 -104 -27 -173 -4 -100
33 -123 68 -83 124 42 59 22 119 -41 119 -14 0 -50 -16 -80 -35 -97 -62 -149
-46 -316 101 -34 30 -70 54 -81 54 -59 0 -124 -33 -209 -106 -227 -195 -477
-313 -661 -314 -49 0 -53 2 -53 23 0 52 -36 59 -107 21 -61 -33 -110 -29 -199
17 -149 75 -295 262 -349 449 -4 14 -14 33 -22 42 -12 13 -12 21 -2 40 11 22
11 22 -7 6 -10 -9 -54 -33 -97 -53 -62 -29 -78 -42 -83 -63 -14 -65 -59 -182
-90 -233 -75 -124 -222 -227 -379 -265 -96 -23 -249 -25 -270 -3 -14 14 -15
20 -3 38 9 16 10 25 2 39 -17 27 -42 26 -87 -4 -76 -50 -179 -36 -201 28 -10
28 -7 34 51 108 22 27 16 24 -27 -16 -61 -56 -105 -74 -128 -51 -9 10 -12 23
-7 38 11 34 105 130 144 146 31 13 36 13 63 -7 51 -37 107 -51 208 -51 161 1
331 57 411 135 20 20 54 66 75 103 28 48 95 125 236 268 183 187 199 206 221
266 35 98 90 190 153 256 l55 58 15 -27 c8 -16 23 -28 34 -28 11 0 48 25 82
56 92 82 141 104 232 104 252 0 544 -143 761 -372 86 -92 94 -98 131 -98 61 0
132 41 184 106 59 74 191 199 271 256 81 57 193 115 284 145 99 33 225 27 345
-16z m-3242 18 c41 -14 46 -34 20 -69 -28 -39 -21 -44 27 -20 80 41 146 20
228 -70 89 -99 179 -276 193 -383 6 -41 5 -43 -54 -100 -61 -57 -84 -68 -99
-44 -8 11 -51 124 -75 193 -15 45 -4 78 45 131 l42 46 -56 -6 c-31 -4 -79 -14
-107 -23 l-50 -17 -79 33 c-117 49 -169 61 -267 61 -147 -1 -227 -32 -331
-131 -33 -32 -69 -63 -81 -68 -24 -12 -64 -5 -64 11 0 7 60 70 133 142 74 71
147 148 162 170 37 50 47 59 118 96 99 51 227 72 295 48z m-591 -100 l-5 -62
64 7 c35 4 64 3 64 -2 0 -11 -207 -222 -218 -222 -5 0 -13 36 -16 80 -9 98 10
173 55 225 48 55 63 48 56 -26z m-27 -919 c5 0 14 -8 19 -19 20 -37 -5 -84
-87 -162 l-77 -74 -3 59 c-2 47 2 69 24 113 27 55 76 98 102 88 8 -3 18 -5 22
-5z"/>
<path d="M4111 2624 c-165 -44 -388 -217 -533 -413 -37 -49 -39 -55 -27 -79
20 -36 162 -165 241 -218 80 -53 168 -91 257 -109 115 -25 300 14 410 84 69
45 148 131 179 198 25 53 27 69 28 183 1 138 7 161 57 217 40 45 47 62 35 86
-14 28 -103 23 -144 -8 -43 -33 -73 -32 -134 6 -107 66 -247 86 -369 53z m151
-102 c69 -31 134 -96 170 -170 30 -61 33 -74 33 -162 0 -88 -3 -101 -33 -162
-55 -112 -128 -156 -239 -145 -99 10 -209 78 -374 229 -98 90 -98 77 11 206
84 98 199 196 254 216 50 19 120 14 178 -12z"/>
<path d="M2428 2610 c-169 -35 -290 -123 -353 -255 -40 -85 -47 -224 -15 -307
61 -163 275 -275 470 -246 36 5 113 25 173 44 59 20 113 34 120 31 6 -2 23 1
37 8 20 11 416 414 484 493 35 41 -2 23 -68 -33 -35 -30 -76 -59 -90 -65 -65
-24 -156 59 -156 143 0 27 10 46 46 86 25 28 41 51 36 51 -5 0 -16 -8 -23 -17
-8 -9 -32 -29 -53 -45 -56 -40 -93 -37 -152 12 -93 77 -211 121 -323 119 -25
0 -85 -9 -133 -19z m145 -85 c64 -30 199 -137 262 -207 66 -74 135 -164 135
-178 0 -29 -189 -166 -305 -221 -85 -41 -170 -41 -240 0 -173 101 -241 322
-149 490 29 54 88 119 119 132 42 17 125 10 178 -16z"/>
</g>
</svg>
